HIERARCHY
ROOT Hips
{
	OFFSET 0.000000 0.000000 0.000000 
	CHANNELS 6 Xposition Yposition Zposition Yrotation Zrotation Xrotation 
	JOINT Lumbar
	{
		OFFSET 0.000000 0.000000 0.000000 
		CHANNELS 3 Zrotation Xrotation Yrotation
		JOINT Neck
		{
			OFFSET 0.000000 0.445665 0.000000 
			CHANNELS 3 Zrotation Xrotation Yrotation
			End Site
			{
				OFFSET 0.000000 0.227535 0.000000 
			}
		}
		JOINT RightShoulder
		{
			OFFSET 0.019635 0.377685 0.194865 
			CHANNELS 3 Zrotation Xrotation Yrotation
			JOINT RightElbow
			{
				OFFSET 0.000000 -0.243375 0.000000 
				CHANNELS 2 Zrotation Yrotation
				JOINT RightWrist
				{
					OFFSET 0.000000 -0.264825 0.000000 
					CHANNELS 2 Zrotation Xrotation
					End Site
					{
						OFFSET 0.006600 -0.176220 0.000990 
					}
				}
			}
		}
		JOINT LeftShoulder
		{
			OFFSET 0.019635 0.377685 -0.194865 
			CHANNELS 3 Zrotation Xrotation Yrotation
			JOINT LeftElbow
			{
				OFFSET 0.000000 -0.243375 0.000000 
				CHANNELS 2 Zrotation Yrotation
				JOINT LeftWrist
				{
					OFFSET 0.000000 -0.264825 0.000000 
					CHANNELS 2 Zrotation Xrotation
					End Site
					{
						OFFSET 0.006600 -0.176220 -0.000990 
					}
				}
			}
		}
	}
	JOINT RightHip
	{
		OFFSET 0.052140 -0.069960 0.075570 
		CHANNELS 3 Zrotation Xrotation Yrotation
		JOINT RightKnee
		{
			OFFSET 0.000000 -0.402270 0.000000 
			CHANNELS 1 Zrotation
			JOINT RightAnkle
			{
				OFFSET 0.000000 -0.404085 0.000000 
				CHANNELS 3 Zrotation Xrotation Yrotation
				End Site
				{
					OFFSET 0.204105 -0.089430 0.008415 
				}
			}
		}
	}
	JOINT LeftHip
	{
		OFFSET 0.052140 -0.069960 -0.075570 
		CHANNELS 3 Zrotation Xrotation Yrotation
		JOINT LeftKnee
		{
			OFFSET 0.000000 -0.402270 0.000000 
			CHANNELS 1 Zrotation
			JOINT LeftAnkle
			{
				OFFSET 0.000000 -0.404085 0.000000 
				CHANNELS 3 Zrotation Xrotation Yrotation
				End Site
				{
					OFFSET 0.204105 -0.089430 -0.008415 
				}
			}
		}
	}
}
MOTION
Frames: 31
Frame Time: 0.02
0.60272 -0.08665 -0.03226 173.39385 0 3.24189 56.95067 12.43254 45.79709 -73.79695 43.14366 4.78481 -2.10586 -18.98026 -29.22342 97.82544 111.62647 -34.61776 -7.25462 44.34478 7.18289 2.9593 37.94334 -108.19007 -42.76945 6.31725 93.51963 0.40069 -20.41003 -9.58261 -30.973 1.75326 -14.28327 91.06697 6.93711 -3.60749 -7.44458 -7.70605 2.85862 4.55262
0.60268 -0.08679 -0.03275 173.41098 0 3.40922 56.9702 12.3122 46.00251 -73.79695 43.14367 4.77717 -2.10624 -18.85108 -29.18744 97.89657 111.54734 -34.53653 -7.24426 44.33171 7.31381 2.8136 38.08864 -108.04553 -42.63061 6.24963 93.57026 0.43815 -20.09829 -9.71728 -30.08251 1.51403 -14.24754 90.99884 6.90417 -3.42522 -7.39303 -7.62584 2.83242 4.25401
0.60262 -0.08696 -0.03328 173.43709 0 3.58592 56.99151 12.17057 46.17404 -73.79695 43.14368 4.83656 -2.16645 -18.76111 -29.22058 98.01083 111.41182 -34.44007 -7.22506 44.41668 7.33815 2.75061 38.01328 -108.04068 -42.6682 6.28445 93.65181 0.46053 -19.67753 -9.93443 -28.97275 1.22075 -14.23151 90.87809 6.86347 -3.32453 -7.24299 -7.52833 2.81043 4.10566
0.60256 -0.08711 -0.03378 173.46101 0 3.75417 57.01305 12.04077 46.35612 -73.79696 43.14369 4.86262 -2.19882 -18.65293 -29.22113 98.10353 111.30827 -34.3539 -7.21094 44.45836 7.40998 2.65463 38.03111 -107.98764 -42.63706 6.27065 93.69881 0.49234 -19.3459 -10.07588 -27.97916 0.95624 -14.1972 90.78389 6.8248 -3.19873 -7.14016 -7.44617 2.78688 3.90111
0.60254 -0.0873 -0.03432 173.47617 0 3.94143 57.03017 11.9019 46.56014 -73.79696 43.14371 4.90053 -2.23401 -18.54612 -29.22654 98.20459 111.17826 -34.2532 -7.19246 44.48945 7.48956 2.5317 38.08975 -107.86187 -42.54667 6.25806 93.83028 0.51517 -18.84858 -10.37533 -26.91047 0.67254 -14.2001 90.6855 6.79277 -3.0243 -7.03901 -7.3295 2.76236 3.63899
0.60243 -0.08741 -0.03478 173.51166 0 4.09052 57.05676 11.77754 46.70994 -73.79696 43.14372 4.93007 -2.27778 -18.4456 -29.23883 98.29889 111.08949 -34.1791 -7.18084 44.56746 7.52627 2.48711 38.00853 -107.92158 -42.62218 6.27038 93.79667 0.55177 -18.66477 -10.37136 -25.95096 0.41719 -14.1322 90.58157 6.74539 -2.96742 -6.90784 -7.28091 2.74056 3.53298
0.60205 -0.0873 -0.035 173.60517 0 4.13595 57.11108 11.68972 46.71713 -73.79696 43.14371 4.91639 -2.327 -18.35677 -29.24637 98.3585 111.13287 -34.18425 -7.19114 44.75615 7.4705 2.64165 37.5744 -108.48697 -43.15713 6.32322 93.26588 0.63796 -19.43759 -9.45001 -25.31193 0.24509 -13.84918 90.46395 6.6522 -3.24468 -6.69922 -7.43433 2.72649 3.84596
0.60158 -0.08712 -0.03513 173.71815 0 4.14192 57.17446 11.61863 46.67099 -73.79696 43.14369 4.89264 -2.38331 -18.2725 -29.25959 98.41067 111.21885 -34.21636 -7.20848 44.98829 7.37498 2.87197 37.00961 -109.22973 -43.84671 6.39885 92.57407 0.73699 -20.51863 -8.23132 -24.79676 0.10494 -13.49714 90.34342 6.54475 -3.63196 -6.46513 -7.65546 2.7148 4.30745
0.60116 -0.08698 -0.03529 173.81977 0 4.16297 57.23252 11.54561 46.6497 -73.79695 43.14368 4.8759 -2.43878 -18.18338 -29.2747 98.46987 111.28245 -34.23486 -7.22203 45.1983 7.29691 3.06771 36.51587 -109.87577 -44.43851 6.46762 91.97789 0.82472 -21.41666 -7.18728 -24.24838 -0.04425 -13.18645 90.23065 6.44713 -3.94979 -6.25321 -7.83986 2.70097 4.68606
0.6007 -0.08681 -0.03549 173.93255 0 4.19576 57.29604 11.44838 46.62432 -73.79695 43.14367 4.8512 -2.48665 -18.10644 -29.27365 98.51553 111.35693 -34.25863 -7.23777 45.42271 7.21681 3.26992 35.96364 -110.59801 -45.15258 6.52652 91.2878 0.93465 -22.49081 -5.97896 -23.59637 -0.21815 -12.83407 90.08955 6.33492 -4.35297 -5.99412 -8.04924 2.69132 5.13488
0.6003 -0.08669 -0.03558 174.02626 0 4.19545 57.34992 11.40522 46.59564 -73.79695 43.14366 4.83983 -2.55079 -18.00583 -29.30633 98.5866 111.41946 -34.27795 -7.25071 45.62493 7.13413 3.47167 35.50724 -111.19748 -45.64615 6.60824 90.75493 1.00202 -23.27436 -5.04153 -23.19064 -0.33267 -12.55213 90.00674 6.25004 -4.60293 -5.82753 -8.2223 2.67405 5.4706
0.60006 -0.08671 -0.03537 174.06559 0 4.10588 57.37842 11.51206 46.56737 -73.79695 43.14367 4.86676 -2.66134 -17.82917 -29.43264 98.73307 111.44008 -34.27906 -7.25445 45.76544 7.0435 3.68878 35.32901 -111.45334 -45.49656 6.76359 90.69268 0.94516 -23.16645 -4.91969 -23.45278 -0.28747 -12.47906 90.09119 6.24193 -4.4078 -5.93034 -8.28438 2.63007 5.45978
0.59988 -0.08679 -0.03504 174.0846 0 3.98571 57.39635 11.67169 46.5384 -73.79695 43.14368 4.90686 -2.78678 -17.63019 -29.59134 98.90417 111.44728 -34.27474 -7.25514 45.8796 6.95415 3.89697 35.25614 -111.57266 -45.11925 6.93787 90.79413 0.84581 -22.75827 -5.08033 -23.95679 -0.18391 -12.47928 90.23346 6.26209 -4.05407 -6.12591 -8.30684 2.57921 5.32944
0.59968 -0.08685 -0.03477 174.11067 0 3.8844 57.41668 11.80444 46.51229 -73.79696 43.14369 4.94179 -2.90345 -17.44746 -29.73445 99.06195 111.4598 -34.27247 -7.25708 45.99882 6.87165 4.08438 35.14831 -111.727 -44.84172 7.09203 90.82295 0.76823 -22.49739 -5.11581 -24.33858 -0.10928 -12.44797 90.34599 6.27101 -3.76837 -6.2747 -8.34341 2.53489 5.25099
0.59943 -0.08687 -0.03448 174.14597 0 3.76077 57.44704 11.95099 46.47372 -73.79696 43.14371 4.97479 -3.03026 -17.23889 -29.88416 99.22985 111.47671 -34.27275 -7.25975 46.14937 6.75629 4.37479 34.98163 -111.99735 -44.58113 7.29455 90.84062 0.68046 -22.20257 -5.13125 -24.77415 -0.0238 -12.40827 90.47357 6.27335 -3.50063 -6.44299 -8.39778 2.47646 5.18576
0.59929 -0.08699 -0.03419 174.15774 0 3.67694 57.45445 12.07983 46.46142 -73.79696 43.14372 5.01278 -3.13763 -17.07909 -30.02436 99.38092 111.48115 -34.26628 -7.26018 46.22714 6.71028 4.45326 34.96375 -111.99685 -44.23443 7.40191 90.92012 0.60396 -21.90172 -5.25453 -25.15647 0.05302 -12.40246 90.58287 6.29541 -3.16016 -6.59186 -8.40603 2.4455 5.06555
0.59946 -0.08739 -0.03393 174.10281 0 3.71028 57.39592 12.15758 46.52441 -73.79696 43.14372 5.08031 -3.20224 -17.05683 -30.15839 99.49342 111.45087 -34.24076 -7.25424 46.11498 6.8557 3.89946 35.33791 -111.23219 -43.65849 7.22958 91.15183 0.56624 -21.66787 -5.6504 -25.3074 0.08735 -12.48887 90.63385 6.37269 -2.62332 -6.67511 -8.28546 2.49408 4.7966
0.59973 -0.08788 -0.03367 174.02606 0 3.78505 57.31556 12.21346 46.61382 -73.79696 43.14372 5.1486 -3.24369 -17.08488 -30.27605 99.58529 111.40905 -34.20889 -7.24626 45.92887 7.07131 3.14173 35.85851 -110.20748 -43.01121 6.96291 91.43724 0.54165 -21.43457 -6.13895 -25.4004 0.11157 -12.60421 90.66339 6.46755 -2.0238 -6.73398 -8.12146 2.57012 4.48022
0.59994 -0.08831 -0.03343 173.96357 0 3.84107 57.24856 12.27244 46.68954 -73.79696 43.14372 5.20454 -3.28655 -17.09157 -30.38334 99.67788 111.37448 -34.18089 -7.23975 45.77401 7.25452 2.5089 36.30697 -109.33415 -42.42742 6.74746 91.68437 0.51295 -21.19315 -6.55695 -25.53594 0.14313 -12.69565 90.6985 6.54932 -1.4759 -6.79686 -7.9845 2.63234 4.20241
0.60019 -0.08882 -0.03312 173.88201 0 3.89528 57.16677 12.36277 46.77167 -73.79696 43.14372 5.31286 -3.36972 -17.09115 -30.56866 99.80902 111.33059 -34.14837 -7.23085 45.63032 7.43882 1.73866 36.77866 -108.31822 -41.70685 6.49779 91.99432 0.47548 -20.97586 -7.10208 -25.61197 0.16527 -12.83457 90.75281 6.65333 -0.82811 -6.89187 -7.81591 2.70019 3.85012
0.60038 -0.08919 -0.03294 173.83529 0 3.96396 57.11061 12.38112 46.84752 -73.79696 43.14372 5.3105 -3.36161 -17.11776 -30.58498 99.8532 111.30408 -34.12406 -7.22648 45.44352 7.63884 1.20769 37.24035 -107.53654 -41.25439 6.29633 92.18576 0.45925 -20.71085 -7.40403 -25.79451 0.20371 -12.88104 90.76182 6.71515 -0.37147 -6.91414 -7.70269 2.76263 3.64143
0.60034 -0.08916 -0.03309 173.88968 0 4.05862 57.13161 12.213 46.89319 -73.79696 43.14372 5.016 -3.12108 -17.20661 -30.15751 99.67478 111.32382 -34.12208 -7.23535 45.17877 7.85343 1.37521 37.59517 -107.48964 -41.58445 6.25433 92.02176 0.50489 -20.32811 -6.98275 -26.28807 0.29062 -12.66087 90.64604 6.65337 -0.49408 -6.7308 -7.75923 2.80605 3.85688
0.60024 -0.089 -0.03336 173.97987 0 4.16712 57.17894 11.97203 46.93291 -73.79696 43.14372 4.60768 -2.78697 -17.3208 -29.55723 99.40724 111.36242 -34.12904 -7.24883 44.86946 8.08348 1.79254 37.94192 -107.68363 -42.18313 6.26342 91.73859 0.57061 -19.89675 -6.31758 -26.88878 0.39381 -12.34742 90.48607 6.54906 -0.80561 -6.47662 -7.87206 2.84267 4.21617
0.60016 -0.0889 -0.03357 174.0543 0 4.27215 57.21369 11.75913 46.97945 -73.79696 43.14372 4.24217 -2.48623 -17.42385 -29.02305 99.17199 111.3954 -34.13308 -7.26006 44.56506 8.31419 2.10387 38.321 -107.75201 -42.64393 6.24684 91.51908 0.62297 -19.47907 -5.7817 -27.43781 0.48856 -12.07876 90.34926 6.46573 -1.00733 -6.26145 -7.95517 2.88066 4.49951
0.6001 -0.08878 -0.03377 174.1266 0 4.36737 57.25057 11.56519 47.00921 -73.79696 43.14372 3.91345 -2.22262 -17.52806 -28.53923 98.97011 111.4153 -34.13177 -7.27185 44.32108 8.51526 2.37761 38.58647 -107.87918 -43.16951 6.23724 91.2616 0.69306 -19.09429 -5.1713 -27.99884 0.58731 -11.79979 90.19862 6.37546 -1.30647 -6.01677 -8.05405 2.92666 4.82529
0.59998 -0.08867 -0.03404 174.21115 0 4.48492 57.28917 11.3167 47.07259 -73.79696 43.14372 3.48216 -1.86067 -17.63398 -27.91165 98.6786 111.46735 -34.14416 -7.28365 43.94382 8.78037 2.79 39.08193 -107.94471 -43.62405 6.22659 91.05396 0.73154 -18.63258 -4.65699 -28.55948 0.68181 -11.5213 90.06673 6.29008 -1.45021 -5.81697 -8.13424 2.95428 5.09809
0.59972 -0.08858 -0.03449 174.32949 0 4.66778 57.32963 10.91893 47.22606 -73.79696 43.14372 2.78666 -1.24283 -17.74914 -26.91335 98.15527 111.60093 -34.18904 -7.29386 43.1917 9.22181 3.53851 40.23682 -107.78124 -43.8251 6.19993 91.01442 0.67153 -17.94483 -4.46635 -29.10567 0.75959 -11.25332 89.99628 6.22172 -1.1043 -5.75901 -8.14738 2.93033 5.18427
0.5994 -0.08849 -0.035 174.45749 0 4.87097 57.37043 10.47209 47.41387 -73.79696 43.14372 1.99404 -0.53125 -17.86307 -25.78012 97.5465 111.76648 -34.2479 -7.30401 42.31111 9.72579 4.41578 41.61773 -107.54899 -43.94441 6.17105 91.02853 0.58007 -17.18664 -4.38051 -29.64536 0.8326 -10.99143 89.9466 6.1608 -0.59906 -5.74868 -8.14026 2.88839 5.21323
0.59912 -0.08841 -0.03548 174.57536 0 5.06023 57.40874 10.05848 47.589 -73.79696 43.14372 1.25102 0.13321 -17.97008 -24.71834 96.98043 111.91953 -34.30259 -7.31458 41.50074 10.19918 5.22639 42.88078 -107.34908 -44.09577 6.14405 91.01705 0.50717 -16.47685 -4.24718 -30.18025 0.9087 -10.73554 89.88823 6.10109 -0.17576 -5.71626 -8.14375 2.85626 5.27216
0.59879 -0.08829 -0.03601 174.71839 0 5.27041 57.45748 9.59565 47.75301 -73.79696 43.14372 0.47879 0.82221 -18.10891 -23.60482 96.39314 112.06585 -34.34882 -7.32377 40.63694 10.68403 6.0821 44.21086 -107.15164 -44.27714 6.11505 91.00693 0.41726 -15.69416 -4.10515 -30.75277 0.98212 -10.4394 89.825 6.02113 0.28362 -5.68317 -8.1434 2.81724 5.31992
0.59855 -0.08825 -0.03644 174.81121 0 5.44091 57.48465 9.22528 47.94663 -73.79696 43.14372 -0.25144 1.47843 -18.1817 -22.57294 95.8331 112.23207 -34.41529 -7.33561 39.85683 11.15752 6.86855 45.45096 -106.93114 -44.37415 6.08909 91.00778 0.35468 -15.04972 -4.00887 -31.24249 1.05896 -10.22974 89.77757 5.98492 0.70515 -5.66376 -8.14535 2.78808 5.37475
